<svg width="45" height="45" viewBox="0 0 45 45" fill="none" xmlns="http://www.w3.org/2000/svg">
<path d="M37.2954 0H7.70458C3.4563 0 0 3.4563 0 7.70458V37.2954C0 41.5437 3.4563 45 7.70458 45H37.2954C41.5437 45 45 41.5437 45 37.2954V7.70458C45 3.4563 41.5437 0 37.2954 0ZM43.6816 37.2954C43.6816 40.8168 40.8168 43.6816 37.2954 43.6816H7.70458C4.18324 43.6816 1.31836 40.8168 1.31836 37.2954V7.70458C1.31836 4.18324 4.18324 1.31836 7.70458 1.31836H37.2954C40.8168 1.31836 43.6816 4.18324 43.6816 7.70458V37.2954Z" fill="black"/>
<path d="M22.5 9.86377C15.5323 9.86377 9.86365 15.5325 9.86365 22.5002C9.86365 29.4679 15.5323 35.1365 22.5 35.1365C29.4677 35.1365 35.1364 29.4679 35.1364 22.5002C35.1364 15.5325 29.4677 9.86377 22.5 9.86377ZM22.5 33.8182C16.2593 33.8182 11.182 28.7409 11.182 22.5002C11.182 16.2594 16.2593 11.1821 22.5 11.1821C28.7408 11.1821 33.8181 16.2594 33.8181 22.5002C33.8181 28.7409 28.7408 33.8182 22.5 33.8182Z" fill="black"/>
<path d="M35.8864 5.63672C33.969 5.63672 32.4091 7.19669 32.4091 9.11402C32.4091 11.0314 33.969 12.5914 35.8864 12.5914C37.8039 12.5914 39.3637 11.0314 39.3637 9.11402C39.3637 7.1966 37.8039 5.63672 35.8864 5.63672ZM35.8864 11.2731C34.696 11.2731 33.7274 10.3045 33.7274 9.11402C33.7274 7.92355 34.696 6.95508 35.8864 6.95508C37.0769 6.95508 38.0454 7.92363 38.0454 9.11402C38.0454 10.3044 37.0769 11.2731 35.8864 11.2731Z" fill="black"/>
<path d="M16.9879 16.9879C19.6861 14.2897 23.901 13.9381 27.0099 16.152C27.3063 16.3631 27.718 16.294 27.9292 15.9974C28.1404 15.7008 28.0711 15.2892 27.7746 15.078C26.0395 13.8425 23.9098 13.2533 21.7783 13.419C19.6205 13.5867 17.5882 14.5231 16.0556 16.0557C14.5231 17.5883 13.5867 19.6207 13.4189 21.7784C13.2532 23.91 13.8424 26.0395 15.0779 27.7746C15.2065 27.9553 15.4094 28.0515 15.6155 28.0515C15.7477 28.0515 15.8813 28.0118 15.9973 27.9292C16.2938 27.718 16.3631 27.3064 16.1519 27.0099C13.9381 23.9009 14.2896 19.6861 16.9879 16.9879Z" fill="black"/>
<path d="M29.0025 17.071C28.706 17.2822 28.6367 17.6938 28.8479 17.9904C31.0618 21.0992 30.7102 25.3141 28.012 28.0124C25.3137 30.7105 21.0989 31.0622 17.99 28.8483C17.6934 28.6372 17.2819 28.7062 17.0707 29.0029C16.8595 29.2994 16.9287 29.711 17.2253 29.9222C18.7684 31.0211 20.6235 31.6087 22.5147 31.6087C22.7498 31.6087 22.9858 31.5995 23.2215 31.5812C25.3793 31.4135 27.4117 30.4772 28.9441 28.9445C30.4767 27.412 31.4131 25.3796 31.5809 23.2218C31.7465 21.0902 31.1574 18.9607 29.9218 17.2255C29.7106 16.9291 29.2991 16.8598 29.0025 17.071Z" fill="black"/>
</svg>
