<svg width="66" height="61" viewBox="0 0 66 61" fill="none" xmlns="http://www.w3.org/2000/svg">
<rect width="66" height="61" fill="#D9A900"/>
<path d="M45.023 20.2336C44.4567 20.637 44.3244 21.4231 44.7278 21.9895C48.9562 27.9273 48.2847 35.9776 43.1312 41.1312C37.9776 46.2846 29.9275 46.9562 23.9895 42.7278C23.4229 42.3245 22.637 42.4565 22.2336 43.023C21.8302 43.5894 21.9625 44.3756 22.5288 44.7789C25.4763 46.8778 29.0193 48 32.6315 48C33.0805 48 33.5313 47.9825 33.9815 47.9476C38.1028 47.6272 41.9846 45.8389 44.9116 42.9116C47.8387 39.9845 49.6272 36.1027 49.9476 31.9813C50.2641 27.91 49.1388 23.8427 46.7789 20.5287C46.3756 19.9625 45.5896 19.8302 45.023 20.2336Z" fill="black"/>
<path d="M21.869 19.8688C27.0225 14.7153 35.0727 14.0438 41.0105 18.2722C41.5768 18.6755 42.3631 18.5435 42.7664 17.977C43.1698 17.4106 43.0375 16.6244 42.4712 16.2211C39.1571 13.8612 35.0895 12.7359 31.0186 13.0524C26.8973 13.3727 23.0155 15.1611 20.0884 18.0884C17.1613 21.0156 15.3728 24.8974 15.0524 29.0185C14.7359 33.0899 15.8613 37.1571 18.221 40.4712C18.4666 40.8162 18.8541 41 19.2477 41C19.5003 41 19.7555 40.9241 19.9769 40.7665C20.5433 40.3631 20.6756 39.577 20.2722 39.0106C16.044 33.0726 16.7154 25.0224 21.869 19.8688Z" fill="black"/>
<path d="M32.5 6C18.9907 6 8 16.9907 8 30.5C8 44.0093 18.9907 55 32.5 55C46.0093 55 57 44.0093 57 30.5C57 16.9907 46.0093 6 32.5 6ZM32.5 52.4439C20.4001 52.4439 10.5561 42.5999 10.5561 30.5C10.5561 18.4001 20.4001 8.5561 32.5 8.5561C44.5999 8.5561 54.4439 18.4001 54.4439 30.5C54.4439 42.5999 44.5999 52.4439 32.5 52.4439Z" fill="black"/>
</svg>
