<svg width="45" height="45" viewBox="0 0 45 45" fill="none" xmlns="http://www.w3.org/2000/svg">
<g clip-path="url(#clip0_213_49)">
<path d="M33.8615 10.7154L15.3544 22.114C14.3071 22.7605 13.8115 24.0375 14.1489 25.2185L16.15 32.2498C16.321 32.8493 16.8544 33.2478 17.4683 33.2478C17.5025 33.2478 17.537 33.2465 17.5716 33.244C18.2278 33.1964 18.7471 32.7076 18.8344 32.0562L19.3547 28.2007C19.4248 27.682 19.6748 27.1995 20.0579 26.8428L35.3302 12.6464C35.7917 12.2185 35.8527 11.5177 35.4724 11.0165C35.0915 10.5148 34.3993 10.3851 33.8615 10.7154ZM18.8367 25.5302C18.1505 26.169 17.7034 27.0322 17.5779 27.9608L17.3255 29.8309L15.873 24.727C15.7549 24.3135 15.9288 23.8664 16.2953 23.6402L29.8531 15.29L18.8367 25.5302Z" fill="black"/>
<path d="M44.2677 3.2855C43.6894 2.79542 42.8915 2.66051 42.1848 2.9335L1.32517 18.696C0.515962 19.0081 -0.00435058 19.77 -0.000219723 20.637C0.00399903 21.5049 0.531958 22.2626 1.34591 22.5676L10.89 26.1297L14.6129 38.1026C14.8173 38.7608 15.3334 39.2722 15.9931 39.4707C16.6524 39.669 17.3645 39.5272 17.8968 39.0919L23.4462 34.5679C23.7127 34.3506 24.0932 34.3399 24.3715 34.542L34.3807 41.8088C34.7408 42.0706 35.1658 42.2053 35.5957 42.2053C35.8475 42.2053 36.1009 42.1591 36.3442 42.065C37.0022 41.8106 37.4807 41.2466 37.6239 40.5566L44.9565 5.28528C45.1105 4.5426 44.8466 3.77637 44.2677 3.2855ZM43.2012 4.92097L35.8686 40.1922C35.8421 40.3196 35.7503 40.3726 35.698 40.3929C35.6452 40.4133 35.5411 40.4359 35.4346 40.3584L25.425 33.0911C24.9775 32.7663 24.4514 32.605 23.9262 32.605C23.3534 32.605 22.7813 32.7971 22.3137 33.178L16.7631 37.703C16.6643 37.7839 16.5617 37.7695 16.5095 37.7537C16.4569 37.7379 16.3632 37.6931 16.325 37.5704L12.4715 25.1773C12.3891 24.9125 12.1887 24.7007 11.9289 24.6036L1.97398 20.8882C1.82492 20.8324 1.79319 20.7161 1.79275 20.6283C1.79231 20.5413 1.8229 20.4256 1.97055 20.3686L42.8303 4.60623C42.8305 4.60615 42.8307 4.60606 42.831 4.60597C42.9637 4.55473 43.0619 4.61362 43.1086 4.65317C43.1556 4.69316 43.2303 4.78105 43.2012 4.92097Z" fill="black"/>
<path d="M37.5717 22.1612C37.0877 22.0561 36.6105 22.3633 36.5055 22.8471L36.3692 23.4747C36.2642 23.9585 36.5713 24.4358 37.0551 24.5409C37.1192 24.5548 37.1831 24.5614 37.2462 24.5614C37.6588 24.5614 38.0302 24.2747 38.1214 23.8551L38.2576 23.2275C38.3626 22.7437 38.0554 22.2664 37.5717 22.1612Z" fill="black"/>
<path d="M36.6751 26.2901C36.1906 26.1851 35.7137 26.4922 35.6088 26.976L33.547 36.4727C33.4419 36.9565 33.749 37.4339 34.2328 37.5389C34.2969 37.5528 34.3608 37.5595 34.4238 37.5595C34.8366 37.5595 35.2078 37.2728 35.2991 36.8531L37.3609 27.3563C37.4659 26.8725 37.1588 26.3952 36.6751 26.2901Z" fill="black"/>
</g>
<defs>
<clipPath id="clip0_213_49">
<rect width="45" height="45" fill="white"/>
</clipPath>
</defs>
</svg>
