<svg width="45" height="45" viewBox="0 0 45 45" fill="none" xmlns="http://www.w3.org/2000/svg">
<path d="M34.5618 0H10.4381C4.81043 0 0.231934 4.5785 0.231934 10.2062V26.4433C0.231934 32.071 4.81043 36.6495 10.4381 36.6495H14.1495V44.0722C14.1495 44.4235 14.3479 44.7448 14.6624 44.902C14.7937 44.9677 14.9358 45 15.0772 45C15.2744 45 15.4702 44.9372 15.634 44.8144L26.5206 36.6495H34.5618C40.1895 36.6495 44.768 32.071 44.768 26.4433V10.2062C44.768 4.5785 40.1895 0 34.5618 0ZM42.9123 26.4433C42.9123 31.0478 39.1663 34.7938 34.5618 34.7938H26.2113C26.0105 34.7938 25.8152 34.8589 25.6546 34.9794L16.0051 42.2165V35.7216C16.0051 35.2092 15.5897 34.7938 15.0773 34.7938H10.4381C5.83364 34.7938 2.0876 31.0478 2.0876 26.4433V10.2062C2.0876 5.60171 5.83364 1.85567 10.4381 1.85567H34.5618C39.1663 1.85567 42.9123 5.60171 42.9123 10.2062V26.4433Z" fill="black"/>
<path d="M25.2536 21.6499C25.2506 21.6469 25.2476 21.644 25.2445 21.641C24.8909 21.296 24.4256 21.1061 23.9346 21.1061C23.4393 21.1061 22.9735 21.2991 22.6233 21.6493L21.3118 22.9608L17.3735 19.0295L18.6838 17.7192C19.0341 17.369 19.227 16.902 19.227 16.4044C19.227 15.9067 19.034 15.4397 18.6838 15.0896L14.0911 10.4969C13.7409 10.1466 13.2756 9.95361 12.7808 9.95361C12.2861 9.95361 11.8208 10.1465 11.4706 10.4968L7.2026 14.7648C6.9995 14.9678 6.90189 15.2534 6.93826 15.5383C6.96127 15.7174 7.57142 19.9994 13.9568 26.3846C20.3344 32.7718 24.6269 33.3726 24.8065 33.3951C24.8449 33.3999 24.8833 33.4022 24.9217 33.4022C25.166 33.4022 25.4026 33.3056 25.5777 33.1305L26.5566 32.1515L29.8337 28.8745C30.1903 28.524 30.3866 28.0563 30.3866 27.5569C30.3866 27.0572 30.1903 26.5896 29.8336 26.2391L25.2536 21.6499ZM28.5231 27.5607L24.6227 31.4611C23.4861 31.1533 20.0797 29.8904 15.2695 25.0729C10.5023 20.3057 9.20033 16.8577 8.87707 15.7145L12.779 11.8088L17.3718 16.4069L15.4048 18.374C15.2307 18.5481 15.1329 18.7842 15.133 19.0304C15.1331 19.2767 15.2311 19.5128 15.4054 19.6867L20.657 24.929C21.0195 25.2907 21.6065 25.2905 21.9685 24.9284L23.9346 22.9618C23.9385 22.9618 23.9426 22.9637 23.9473 22.9679L28.5237 27.5534C28.5248 27.5545 28.5258 27.5556 28.527 27.5568C28.5257 27.5581 28.5245 27.5594 28.5231 27.5607Z" fill="black"/>
<path d="M22.036 9.27832V11.134C26.6405 11.134 30.3865 14.88 30.3865 19.4845H32.2422C32.2422 13.8568 27.6637 9.27832 22.036 9.27832Z" fill="black"/>
<path d="M26.2113 19.0207H28.0669C28.0669 15.6952 25.3615 12.9897 22.036 12.9897V14.8454C24.3383 14.8454 26.2113 16.7184 26.2113 19.0207Z" fill="black"/>
<path d="M22.036 5.56689V7.42256C28.9428 7.42256 34.5618 13.0416 34.5618 19.9483H36.4175C36.4175 12.0184 29.966 5.56689 22.036 5.56689Z" fill="black"/>
</svg>
